<svg width="512" height="512" viewBox="0 0 512 512" fill="none" xmlns="http://www.w3.org/2000/svg">
<path d="M512 0H0V512H512V0Z" fill="black"/>
<path d="M322 377H377V421H307.857L278 391.143V322H322V377ZM421 307.857L391.143 278H322V322L377 322V377H421V307.857ZM234 278H190V322H234V278ZM91 391.143L120.857 421H234V377H135V278H91V391.143ZM371.172 189.999V120.856L341.315 90.9995H278V135H327.172V189.999H278V233.999H421V189.999H371.172ZM135 91H91V233.999H135V184.5H190V233.999H234V184.5L190 140.5H135V91ZM234 91H190V140.5H234V91Z" fill="#FAF74F"/>
</svg>
